<svg width="19" height="19" viewBox="0 0 19 19" fill="none" xmlns="http://www.w3.org/2000/svg">
<path id="Vector" d="M0 15.767C0 17.3257 1.18857 18.5176 2.74286 18.5176H15.5429C17.0971 18.5176 18.2857 17.3257 18.2857 15.767V8.43203H0V15.767ZM15.5429 2.01392H13.7143V1.09705C13.7143 0.546925 13.3486 0.180176 12.8 0.180176C12.2514 0.180176 11.8857 0.546925 11.8857 1.09705V2.01392H6.4V1.09705C6.4 0.546925 6.03429 0.180176 5.48571 0.180176C4.93714 0.180176 4.57143 0.546925 4.57143 1.09705V2.01392H2.74286C1.18857 2.01392 0 3.20586 0 4.76454V6.59828H18.2857V4.76454C18.2857 3.20586 17.0971 2.01392 15.5429 2.01392Z" fill="white" fill-opacity="0.69"/>
</svg>
