<svg width="28" height="20" viewBox="0 0 28 20" fill="none" xmlns="http://www.w3.org/2000/svg">
<path fill-rule="evenodd" clip-rule="evenodd" d="M0.415676 2.01725C0.0390626 2.77516 0.0390625 3.76683 0.0390625 5.75016V14.2502C0.0390625 16.2335 0.0390626 17.2252 0.415676 17.9831C0.747837 18.6493 1.2776 19.1908 1.92905 19.5301C2.66982 19.9168 3.63905 19.9168 5.5775 19.9168H22.1928C24.1313 19.9168 25.1005 19.9168 25.8413 19.5301C26.4922 19.1906 27.0214 18.6491 27.3532 17.9831C27.7312 17.2252 27.7312 16.2335 27.7312 14.2502V5.75016C27.7312 3.76683 27.7312 2.77516 27.3532 2.01725C27.0217 1.35071 26.4924 0.808681 25.8413 0.468829C25.1005 0.0834959 24.1313 0.0834961 22.1928 0.0834961H5.5775C3.63905 0.0834961 2.66982 0.0834959 1.92905 0.468829C1.27739 0.80844 0.747602 1.3505 0.415676 2.01725ZM3.70412 2.91683H24.0662C24.2148 2.91664 24.3596 2.96542 24.4791 3.05594C24.5985 3.14646 24.6863 3.27391 24.7295 3.41945C24.7727 3.56499 24.7689 3.72088 24.7188 3.86407C24.6686 4.00725 24.5748 4.13012 24.4511 4.2145L14.655 10.9182C14.4272 11.0741 14.1592 11.1573 13.8852 11.1573C13.6111 11.1573 13.3431 11.0741 13.1153 10.9182L3.3192 4.2145C3.19552 4.13012 3.10167 4.00725 3.05153 3.86407C3.0014 3.72088 2.99764 3.56499 3.04081 3.41945C3.08398 3.27391 3.17179 3.14646 3.29125 3.05594C3.41071 2.96542 3.55547 2.91664 3.70412 2.91683Z" fill="#F2AF1B"/>
</svg>
