<svg width="14" height="14" viewBox="0 0 14 14" fill="none" xmlns="http://www.w3.org/2000/svg">
<g clip-path="url(#clip0_322_326)">
<path d="M4.70301 11.3747V5.47091H2.74067V11.3747H4.70321H4.70301ZM3.72225 4.66499C4.40641 4.66499 4.83235 4.21164 4.83235 3.64509C4.81954 3.06563 4.40641 2.62494 3.73526 2.62494C3.06364 2.62494 2.625 3.06563 2.625 3.64504C2.625 4.21159 3.05078 4.66494 3.70939 4.66494H3.72209L3.72225 4.66499ZM5.78919 11.3747H7.75137V8.07813C7.75137 7.90191 7.76418 7.72524 7.81602 7.59938C7.95781 7.24669 8.28068 6.88161 8.8229 6.88161C9.53278 6.88161 9.81693 7.42296 9.81693 8.21669V11.3747H11.7791V7.98966C11.7791 6.17634 10.8111 5.3325 9.52008 5.3325C8.46161 5.3325 7.99674 5.9241 7.73846 6.32704H7.75153V5.47112H5.78929C5.8149 6.02497 5.78914 11.3749 5.78914 11.3749L5.78919 11.3747Z" fill="#25546D"/>
</g>
<defs>
<clipPath id="clip0_322_326">
<rect width="10" height="10" fill="white" transform="translate(2 2)"/>
</clipPath>
</defs>
</svg>
