<svg width="17" height="16" viewBox="0 0 17 16" fill="none" xmlns="http://www.w3.org/2000/svg">
<path d="M3.86541 15.8746V5.24776H0.3332V15.8746H3.86578H3.86541ZM2.10004 3.79709C3.33154 3.79709 4.09823 2.98107 4.09823 1.96127C4.07518 0.918244 3.33154 0.125 2.12346 0.125C0.914556 0.125 0.125 0.918244 0.125 1.96118C0.125 2.98097 0.891412 3.79699 2.0769 3.79699H2.09977L2.10004 3.79709ZM5.82054 15.8746H9.35247V9.94074C9.35247 9.62356 9.37552 9.30554 9.46884 9.07899C9.72406 8.44415 10.3052 7.78701 11.2812 7.78701C12.559 7.78701 13.0705 8.76143 13.0705 10.1902V15.8746H16.6023V9.7815C16.6023 6.51752 14.86 4.99862 12.5361 4.99862C10.6309 4.99862 9.79414 6.0635 9.32924 6.78879H9.35275V5.24813H5.82072C5.86682 6.24505 5.82045 15.875 5.82045 15.875L5.82054 15.8746Z" fill="white"/>
</svg>
