<svg width="19" height="21" viewBox="0 0 19 21" fill="none" xmlns="http://www.w3.org/2000/svg">
<path id="Vector" d="M9.14286 20.8098C8.18045 20.8098 9.31898 19.2947 4.57432 16.9382C4.31438 16.8088 4.06213 16.6646 3.81883 16.5064C1.45805 14.975 0 12.1741 0 9.15934C0 4.20056 4.09311 0.180176 9.14286 0.180176C14.1926 0.180176 18.2857 4.20056 18.2857 9.15839C18.2857 12.4802 16.511 15.5459 13.7191 16.9343C8.96962 19.2938 10.1053 20.8098 9.14286 20.8098ZM9.14286 12.7595C11.1745 12.7595 12.8 11.1551 12.8 9.20444C12.8 7.25374 11.1745 5.64943 9.14286 5.64943C7.11122 5.64943 5.48571 7.25374 5.48571 9.20444C5.48571 11.1551 7.11122 12.7595 9.14286 12.7595Z" fill="white" fill-opacity="0.69"/>
</svg>
