<svg width="16" height="16" viewBox="0 0 16 16" fill="none" xmlns="http://www.w3.org/2000/svg">
<g id="phone-svgrepo-com (3) 1" clip-path="url(#clip0_322_339)">
<g id="Page-1">
<g id="Icon-Set-Filled">
<path id="phone" fill-rule="evenodd" clip-rule="evenodd" d="M15.5373 2.21652L14.0983 0.781506C13.7013 0.385006 13.0568 0.385006 12.6593 0.781506L10.5008 3.65152C10.1713 4.13702 10.1038 4.69001 10.5008 5.08651L11.3818 5.96501C10.7288 6.84001 9.94479 7.79401 9.06229 8.67401C8.06429 9.66901 6.9543 10.5735 5.9563 11.3165L5.1048 10.468C4.7078 10.0715 4.15329 10.1385 3.66579 10.468L0.787797 12.6205C0.305297 12.953 0.390297 13.659 0.787797 14.0555L2.22679 15.49C3.02179 16.283 4.0553 16.029 5.1048 15.49C5.1048 15.49 8.2813 13.712 11.0008 11C13.5588 8.44901 15.5373 5.08651 15.5373 5.08651C15.9498 3.95501 16.3323 3.00902 15.5373 2.21652Z" fill="#56C5FF"/>
</g>
</g>
</g>
<defs>
<clipPath id="clip0_322_339">
<rect width="16" height="16" fill="white"/>
</clipPath>
</defs>
</svg>
