<svg width="22" height="21" viewBox="0 0 22 21" fill="none" xmlns="http://www.w3.org/2000/svg">
<path d="M8.58348 2.27717L8.58348 2.27716C8.4767 1.25279 7.60185 0.5 6.60003 0.5H3.10573C1.89677 0.5 0.99297 1.5582 1.09593 2.74364C1.91311 12.1533 9.28098 19.6588 18.5452 20.4917C19.7329 20.5985 20.7611 19.6662 20.7611 18.4582V15.2885C20.7611 14.6331 20.6034 14.0671 20.2934 13.6406C19.9781 13.207 19.5246 12.9466 19.0086 12.8909C18.2781 12.8121 17.5676 12.6651 16.8836 12.4563C15.8271 12.1339 14.6894 12.4393 13.9178 13.2243L13.9178 13.2243L12.6917 14.4719C10.3359 13.0969 8.37419 11.0993 7.02408 8.69862L8.25919 7.44186C8.25919 7.44185 8.25919 7.44185 8.2592 7.44185C9.02978 6.65778 9.32525 5.50808 9.01148 4.44376C8.8059 3.74643 8.66111 3.02211 8.58348 2.27717Z" fill="#F2AF1B" stroke="#F2AF1B" stroke-linecap="round" stroke-linejoin="round"/>
</svg>
