<svg width="161" height="119" viewBox="0 0 161 119" fill="none" xmlns="http://www.w3.org/2000/svg">
<g id="quotes-svgrepo-com 2">
<g id="Group">
<path id="Vector" d="M95.2207 95.75C92.2207 95.75 90.2207 97.675 90.2207 100.562C90.2207 103.45 92.2207 105.375 95.2207 105.375C120.221 105.375 140.221 86.125 140.221 62.0625C140.221 48.5875 129.221 38 115.221 38C101.221 38 90.2207 48.5875 90.2207 62.0625C90.2207 75.5375 101.221 86.125 115.221 86.125C116.721 86.125 118.721 86.125 120.221 85.6437C113.721 91.9 105.221 95.75 95.2207 95.75Z" fill="#EFEFEF"/>
<path id="Vector_2" d="M45.2207 86.125C46.7207 86.125 48.7207 86.125 50.2207 85.6437C43.7207 91.9 35.2207 95.75 25.2207 95.75C22.2207 95.75 20.2207 97.675 20.2207 100.562C20.2207 103.45 22.2207 105.375 25.2207 105.375C50.2207 105.375 70.2207 86.125 70.2207 62.0625C70.2207 48.5875 59.2207 38 45.2207 38C31.2207 38 20.2207 48.5875 20.2207 62.0625C20.2207 75.5375 31.2207 86.125 45.2207 86.125Z" fill="#EFEFEF"/>
</g>
</g>
</svg>
