<svg width="161" height="56" viewBox="0 0 161 56" fill="none" xmlns="http://www.w3.org/2000/svg">
<g id="quotes-svgrepo-com 1" clip-path="url(#clip0_161_4836)">
<g id="Group">
<path id="Vector" d="M65.584 26.625C68.584 26.625 70.584 24.7 70.584 21.8125C70.584 18.925 68.584 17 65.584 17C40.584 17 20.584 36.25 20.584 60.3125C20.584 73.7875 31.584 84.375 45.584 84.375C59.584 84.375 70.584 73.7875 70.584 60.3125C70.584 46.8375 59.584 36.25 45.584 36.25C44.084 36.25 42.084 36.25 40.584 36.7313C47.084 30.475 55.584 26.625 65.584 26.625Z" fill="#F2AF1B"/>
<path id="Vector_2" d="M115.584 36.25C114.084 36.25 112.084 36.25 110.584 36.7313C117.084 30.475 125.584 26.625 135.584 26.625C138.584 26.625 140.584 24.7 140.584 21.8125C140.584 18.925 138.584 17 135.584 17C110.584 17 90.584 36.25 90.584 60.3125C90.584 73.7875 101.584 84.375 115.584 84.375C129.584 84.375 140.584 73.7875 140.584 60.3125C140.584 46.8375 129.584 36.25 115.584 36.25Z" fill="#F2AF1B"/>
</g>
</g>
<defs>
<clipPath id="clip0_161_4836">
<rect width="160" height="56" fill="white" transform="translate(0.583984)"/>
</clipPath>
</defs>
</svg>
