<svg width="44" height="44" viewBox="0 0 44 44" fill="none" xmlns="http://www.w3.org/2000/svg">
<path d="M5.45584 3.24318C5.22985 3.13015 4.97667 3.08282 4.72511 3.10656C4.47355 3.1303 4.2337 3.22417 4.03284 3.37748C3.83199 3.53079 3.6782 3.7374 3.58895 3.97379C3.49971 4.21019 3.47861 4.46689 3.52804 4.71468L7.31614 17.8097C7.38677 18.0537 7.52483 18.2729 7.71444 18.4419C7.90406 18.611 8.13754 18.7232 8.38804 18.7655L23.751 21.3386C24.4746 21.4817 24.4746 22.5185 23.751 22.6616L8.38804 25.2347C8.13754 25.277 7.90406 25.3891 7.71444 25.5582C7.52483 25.7273 7.38677 25.9464 7.31614 26.1905L3.52804 39.2855C3.47861 39.5333 3.49971 39.79 3.58895 40.0264C3.6782 40.2628 3.83199 40.4694 4.03284 40.6227C4.2337 40.776 4.47355 40.8699 4.72511 40.8936C4.97667 40.9173 5.22985 40.87 5.45584 40.757L40.5558 23.207C40.7798 23.0947 40.9681 22.9224 41.0997 22.7093C41.2312 22.4961 41.3009 22.2506 41.3009 22.0001C41.3009 21.7496 41.2312 21.504 41.0997 21.2909C40.9681 21.0777 40.7798 20.9054 40.5558 20.7932L5.45584 3.24318Z" fill="white"/>
</svg>
