<svg width="92" height="69" viewBox="0 0 92 69" fill="none" xmlns="http://www.w3.org/2000/svg">
<g filter="url(#filter0_d_322_2)">
<path d="M45.9883 14.6666C41.8219 14.6666 38.43 18.0895 38.43 22.2737C38.43 24.9207 39.7892 27.2578 41.8417 28.6201C39.3627 29.449 37.2177 30.9982 35.6444 33.0249C34.7746 32.3559 33.8026 31.8178 32.7549 31.4322C34.3437 30.2527 35.382 28.3579 35.382 26.2283C35.382 22.6796 32.5119 19.7745 28.9847 19.7745C25.4575 19.7745 22.5874 22.6796 22.5874 26.2283C22.5874 28.3591 23.6266 30.2548 25.2167 31.4343C21.0067 32.9879 18 37.0553 18 41.8421V45.2046C18.0004 45.461 18.103 45.7065 18.2848 45.8871C18.4666 46.068 18.7126 46.1688 18.9689 46.168H33.7214C33.7571 46.1718 33.7929 46.174 33.8286 46.1736H58.1488C58.1846 46.174 58.2208 46.1718 58.2561 46.168H73.0096C73.54 46.1658 73.9695 45.7354 73.9708 45.2046V41.8421C73.9708 37.0553 70.9692 32.9879 66.7614 31.4339C68.3516 30.2548 69.3908 28.3586 69.3908 26.2278C69.3908 22.6791 66.5207 19.7741 62.9935 19.7741C59.4664 19.7741 56.5962 22.6791 56.5962 26.2278C56.5962 28.3574 57.6349 30.2525 59.2237 31.4318C58.1738 31.8182 57.2015 32.358 56.3304 33.0288C54.7579 31.0009 52.6158 29.4495 50.1369 28.6201C52.1889 27.2578 53.5486 24.9207 53.5486 22.2737C53.5486 18.0895 50.1548 14.6666 45.9883 14.6666Z" fill="#06B1C5"/>
</g>
<defs>
<filter id="filter0_d_322_2" x="0" y="0.666626" width="91.9707" height="67.507" filterUnits="userSpaceOnUse" color-interpolation-filters="sRGB">
<feFlood flood-opacity="0" result="BackgroundImageFix"/>
<feColorMatrix in="SourceAlpha" type="matrix" values="0 0 0 0 0 0 0 0 0 0 0 0 0 0 0 0 0 0 127 0" result="hardAlpha"/>
<feOffset dy="4"/>
<feGaussianBlur stdDeviation="9"/>
<feComposite in2="hardAlpha" operator="out"/>
<feColorMatrix type="matrix" values="0 0 0 0 0.0235294 0 0 0 0 0.694118 0 0 0 0 0.772549 0 0 0 0.14 0"/>
<feBlend mode="normal" in2="BackgroundImageFix" result="effect1_dropShadow_322_2"/>
<feBlend mode="normal" in="SourceGraphic" in2="effect1_dropShadow_322_2" result="shape"/>
</filter>
</defs>
</svg>
