<svg width="21" height="20" viewBox="0 0 21 20" fill="none" xmlns="http://www.w3.org/2000/svg">
<path fill-rule="evenodd" clip-rule="evenodd" d="M12.3073 4C12.3073 1.79086 14.0674 0 16.2385 0C18.4096 0 20.1697 1.79086 20.1697 4C20.1697 6.20914 18.4096 8 16.2385 8C15.0553 8 13.9942 7.46813 13.2735 6.62655L8.28968 9.1621C8.34629 9.4323 8.37608 9.7126 8.37608 10C8.37608 10.2874 8.34629 10.5678 8.28967 10.838L13.2735 13.3735C13.2735 13.3735 15.0553 12 16.2385 12C18.4096 12 20.1697 13.7909 20.1697 16C20.1697 18.2091 18.4096 20 16.2385 20C14.0674 20 12.3073 18.2091 12.3073 16C12.3073 15.7126 12.3371 15.4322 12.3937 15.162L7.40993 12.6265C6.68923 13.4681 5.6281 14 4.44488 14C2.27373 14 0.513672 12.2091 0.513672 10C0.513672 7.79086 2.27373 6 4.44488 6C5.62812 6 6.68927 6.53191 7.40997 7.37354L12.3937 4.83807C12.3371 4.56781 12.3073 4.28744 12.3073 4Z" fill="#F2AF1B"/>
</svg>
