<svg width="18" height="18" viewBox="0 0 18 18" fill="none" xmlns="http://www.w3.org/2000/svg">
<g clip-path="url(#clip0_161_7727)">
<path fill-rule="evenodd" clip-rule="evenodd" d="M8.99766 0.619141C4.37739 0.619141 0.619141 4.37844 0.619141 9.00002C0.619141 10.8329 1.21022 12.5327 2.21502 13.9124L1.17074 17.0262L4.39212 15.9966C5.71706 16.8736 7.29821 17.381 9.00252 17.381C13.6228 17.381 17.381 13.6216 17.381 9.00017C17.381 4.37859 13.6228 0.619279 9.00252 0.619279L8.99766 0.619141ZM6.65791 4.87625C6.49541 4.48704 6.37224 4.47231 6.12605 4.4623C6.04222 4.45743 5.9488 4.45257 5.84524 4.45257C5.52495 4.45257 5.19007 4.54615 4.98808 4.75306C4.74188 5.00433 4.13105 5.59057 4.13105 6.79283C4.13105 7.99508 5.00782 9.15784 5.12598 9.32054C5.24915 9.48295 6.83529 11.9859 9.29806 13.006C11.224 13.8042 11.7955 13.7302 12.2338 13.6366C12.8741 13.4987 13.677 13.0255 13.879 12.4541C14.081 11.8825 14.081 11.3947 14.0218 11.2912C13.9627 11.1877 13.8 11.1288 13.5538 11.0055C13.3076 10.8822 12.1106 10.291 11.884 10.2121C11.6623 10.1284 11.4506 10.1581 11.2832 10.3946C11.0467 10.7247 10.8153 11.0598 10.628 11.2617C10.4803 11.4194 10.2388 11.4392 10.0369 11.3553C9.76599 11.2421 9.00754 10.9758 8.07155 10.1432C7.34743 9.49783 6.8549 8.6948 6.71214 8.4534C6.56923 8.20714 6.69738 8.06405 6.81054 7.93112C6.93371 7.7783 7.05188 7.66997 7.17505 7.52703C7.29822 7.38422 7.36717 7.31025 7.44599 7.14269C7.52982 6.98013 7.47059 6.81257 7.41151 6.68937C7.35243 6.56617 6.8599 5.36391 6.65791 4.87625Z" fill="white"/>
</g>
<defs>
<clipPath id="clip0_161_7727">
<rect width="16.7619" height="16.7619" fill="white" transform="translate(0.619141 0.619141)"/>
</clipPath>
</defs>
</svg>
