<svg width="11" height="11" viewBox="0 0 11 11" fill="none" xmlns="http://www.w3.org/2000/svg">
<g clip-path="url(#clip0_322_333)">
<path fill-rule="evenodd" clip-rule="evenodd" d="M5.49841 0C2.46635 0 0 2.46704 0 5.49995C0 6.70277 0.387897 7.81826 1.04729 8.72368L0.361989 10.7671L2.47602 10.0915C3.34551 10.667 4.38314 11 5.50159 11C8.53365 11 11 8.53287 11 5.50005C11 2.46714 8.53365 9.0917e-05 5.50159 9.0917e-05L5.49841 0ZM3.96294 2.79373C3.8563 2.53831 3.77547 2.52864 3.61391 2.52207C3.5589 2.51888 3.49759 2.51569 3.42963 2.51569C3.21944 2.51569 2.99967 2.5771 2.86712 2.71288C2.70555 2.87778 2.30469 3.2625 2.30469 4.05148C2.30469 4.84046 2.88007 5.60352 2.95761 5.71029C3.03844 5.81688 4.07935 7.45945 5.69554 8.12889C6.95941 8.65268 7.33446 8.60413 7.6221 8.54272C8.0423 8.45219 8.56923 8.14166 8.70179 7.7667C8.83434 7.39156 8.83434 7.07144 8.79547 7.00354C8.7567 6.93565 8.64996 6.89696 8.4884 6.81602C8.32683 6.73517 7.54127 6.34715 7.39257 6.29541C7.24706 6.24048 7.10812 6.25991 6.99828 6.41514C6.8431 6.63177 6.69121 6.8517 6.56833 6.9842C6.47135 7.08768 6.31289 7.10064 6.18042 7.04561C6.00262 6.97133 5.50489 6.79658 4.89065 6.25015C4.41544 5.82664 4.09222 5.29965 3.99853 5.14123C3.90475 4.97962 3.98885 4.88572 4.06311 4.79848C4.14393 4.6982 4.22149 4.62711 4.30232 4.5333C4.38314 4.43958 4.4284 4.39104 4.48012 4.28108C4.53513 4.1744 4.49626 4.06444 4.45749 3.98359C4.41872 3.90274 4.0955 3.11376 3.96294 2.79373Z" fill="#25546D"/>
</g>
<defs>
<clipPath id="clip0_322_333">
<rect width="11" height="11" fill="white"/>
</clipPath>
</defs>
</svg>
