<svg width="165" height="30" viewBox="0 0 165 30" fill="none" xmlns="http://www.w3.org/2000/svg">
<g id="Group">
<path id="Vector" d="M14.4526 0.952082C14.2647 0.967012 13.9009 0.993889 13.6474 1.01181C13.3939 1.02973 13.0837 1.0566 12.9614 1.07452C12.8391 1.08945 12.6184 1.11633 12.4693 1.13425C12.3231 1.15216 12.0607 1.19099 11.8877 1.22085C11.7147 1.25071 11.4612 1.29252 11.321 1.31044C10.987 1.35822 10.0087 1.56129 9.59116 1.6688C9.53449 1.68373 9.27203 1.74943 9.00957 1.81812C8.25201 2.01223 6.85024 2.47809 6.38497 2.68415C6.25075 2.74686 6.01215 2.8484 5.87794 2.90215C5.75566 2.94993 4.58652 3.53525 4.47617 3.60095C4.42844 3.63081 4.28827 3.71443 4.163 3.7861C3.31597 4.28482 2.63894 4.81041 1.95297 5.5122C0.891196 6.58727 0.315573 7.68624 0.0590779 9.11967C-0.0244322 9.58256 -0.0184672 10.6397 0.0710079 11.1265C0.154518 11.5864 0.306626 12.097 0.464698 12.4315C0.530313 12.5749 0.583998 12.6973 0.583998 12.7033C0.583998 12.7361 0.929969 13.2856 1.06716 13.4767C1.3505 13.8649 1.92314 14.4234 2.46298 14.8355C2.62403 14.9609 3.10123 15.2715 3.3279 15.4029C3.52773 15.5164 4.30616 15.9076 4.49108 15.9852C5.70496 16.4929 6.75778 16.8274 8.15956 17.1499C9.0901 17.3619 9.62098 17.4664 10.6201 17.6337C11.3866 17.7591 11.5984 17.7949 11.8131 17.8218C11.9294 17.8368 12.171 17.8696 12.35 17.8965C12.5319 17.9234 12.7854 17.9592 12.9166 17.9741C13.0479 17.992 13.2507 18.0189 13.364 18.0339C13.4803 18.0488 13.6325 18.0667 13.707 18.0727C13.7816 18.0786 14.1365 18.1205 14.4974 18.1652C14.8583 18.21 15.2669 18.2608 15.407 18.2787C15.5472 18.2937 15.747 18.3176 15.8544 18.3325C15.9618 18.3474 16.2034 18.3743 16.3913 18.3922C16.5792 18.4101 16.8297 18.437 16.943 18.4519C17.0593 18.4669 17.2651 18.4937 17.4053 18.5117C18.8638 18.6819 19.0994 18.7117 19.4782 18.7685C19.6422 18.7924 19.8778 18.8252 20.0001 18.8402C20.1224 18.8551 20.3103 18.882 20.4176 18.8999C20.525 18.9178 20.698 18.9417 20.8054 18.9566C20.9127 18.9716 21.1156 19.0074 21.2617 19.0313C21.4049 19.0582 21.6315 19.1 21.7687 19.1239C22.0103 19.1657 22.2459 19.2134 22.4457 19.2582C22.5024 19.2702 22.6217 19.2971 22.7112 19.315C23.248 19.4255 24.3695 19.7659 24.7125 19.9212C25.4879 20.2766 25.7205 20.4229 26.0814 20.7843C26.3379 21.0441 26.4781 21.2591 26.5706 21.5428C26.672 21.8474 26.6839 22.1251 26.6063 22.2894C26.3349 22.8597 25.637 23.5765 24.9063 24.0334C24.5514 24.2544 24.4947 24.2902 24.2949 24.3858C23.427 24.8128 22.0968 25.1921 21.0291 25.3175C20.865 25.3384 20.6443 25.3653 20.5369 25.3802C19.8361 25.4758 17.5246 25.4937 16.5255 25.4131C16.3137 25.3951 15.9558 25.3683 15.7351 25.3503C15.0402 25.2936 14.8374 25.2697 14.0053 25.1383C13.7846 25.1055 13.5221 25.0666 13.4237 25.0517C12.9465 24.983 11.5626 24.6545 10.8319 24.4335C10.2563 24.2603 9.45695 23.9617 8.99466 23.7467C8.90518 23.7049 8.77693 23.6511 8.71132 23.6242C8.6457 23.5974 8.55026 23.5526 8.49658 23.5227C8.44289 23.4958 8.30868 23.4212 8.19833 23.3615C7.83446 23.1614 7.7599 23.1196 7.51832 22.9702C7.24691 22.8 6.88006 22.5402 6.65637 22.358C6.42076 22.1639 5.84513 21.5935 5.67215 21.3785C5.00705 20.5513 4.61634 19.5957 4.55669 18.661L4.53582 18.3176L2.48684 18.3086L0.434873 18.3026V23.3047V28.3068H2.59719H4.7595L4.76547 27.4945L4.77442 26.6822L4.98319 26.6912C5.4932 26.7091 5.84812 26.7898 6.02408 26.9301C6.15233 27.0316 6.43865 27.1392 7.22007 27.381C9.63291 28.1246 13.4684 29.0146 15.5711 29.3222C15.7023 29.3401 15.8783 29.3669 15.9588 29.3819C16.0423 29.3968 16.2421 29.4237 16.4062 29.4416C16.5702 29.4595 16.8118 29.4894 16.943 29.5043C17.2443 29.5461 19.8122 29.5222 20.3133 29.4745C20.7427 29.4356 21.3959 29.361 21.6852 29.3222C21.9417 29.2863 22.4905 29.2057 22.7231 29.1728C22.9319 29.143 23.251 29.0832 23.9221 28.9459C26.9135 28.3456 29.4069 27.3034 31.0652 25.9625C31.4022 25.6938 31.9987 25.0995 32.2433 24.7979C33.1022 23.7318 33.5586 22.6298 33.7077 21.28C33.7554 20.8261 33.7524 20.4229 33.6928 19.6913C33.657 19.2523 33.6272 19.0701 33.5138 18.6311C33.3707 18.0786 33.2693 17.8099 33.0128 17.2843C32.6996 16.6452 32.2641 16.0718 31.6289 15.4477C31.104 14.937 30.6715 14.6056 29.9617 14.1815C29.6783 14.0113 28.6195 13.4648 28.5748 13.4648C28.5658 13.4648 28.4823 13.4319 28.3929 13.3901C28.3004 13.3483 28.1036 13.2677 27.9544 13.208C27.8023 13.1512 27.5786 13.0646 27.4564 13.0198C26.5556 12.6734 24.6916 12.1866 23.3405 11.9418C23.251 11.9268 23.0751 11.894 22.9528 11.8701C22.8305 11.8462 22.5949 11.8044 22.4308 11.7775C21.9507 11.7028 21.7896 11.676 21.5063 11.6282C21.3601 11.6043 21.0231 11.5565 20.7606 11.5237C20.4982 11.4878 20.182 11.449 20.0597 11.4311C19.9375 11.4162 19.7168 11.3893 19.5676 11.3743C19.1441 11.3266 18.8459 11.2907 18.5387 11.2549C18.3836 11.237 18.1092 11.2071 17.9273 11.1922C17.5067 11.1534 17.1339 11.1175 16.779 11.0787C16.6239 11.0638 16.3555 11.0339 16.1825 11.019C16.0095 11.0011 15.7351 10.9742 15.5711 10.9563C15.407 10.9383 15.1058 10.9115 14.9 10.8965C14.6942 10.8786 14.4347 10.8547 14.3184 10.8368C14.2051 10.8219 13.9635 10.795 13.7816 10.7771C13.4356 10.7472 13.1314 10.7114 12.7377 10.6576C12.6065 10.6397 12.3858 10.6128 12.2456 10.5979C11.7624 10.5471 10.7126 10.368 10.1578 10.2425C9.0215 9.98571 8.26394 9.66916 7.86727 9.28691C7.73306 9.15551 7.61972 9.01217 7.56007 8.88973C7.47358 8.72249 7.46165 8.66874 7.44972 8.39997C7.402 7.26517 8.29675 6.3633 10.0385 5.79291C10.8707 5.52116 12.1472 5.28524 13.2895 5.19266C14.2737 5.11203 14.554 5.10307 15.7351 5.10307C16.943 5.10307 17.5336 5.12995 18.5088 5.22252C18.6967 5.24044 18.9801 5.26732 19.1352 5.28225C19.2903 5.2942 19.5527 5.32705 19.7168 5.35392C19.8808 5.3808 20.1104 5.41663 20.2238 5.43455C20.3401 5.45247 20.5608 5.49129 20.7159 5.52116C20.871 5.55102 21.0947 5.59283 21.208 5.61373C21.4824 5.66151 22.6277 5.94223 22.9677 6.04376C23.4866 6.19905 24.2979 6.4947 24.617 6.64401C24.7035 6.68284 24.781 6.71568 24.79 6.71568C24.8228 6.71568 25.3954 7.00536 25.634 7.14273C25.9263 7.30996 26.3439 7.58769 26.6063 7.78778C26.9165 8.02071 27.5518 8.68367 27.7457 8.97334C28.1841 9.62436 28.4674 10.3859 28.5181 11.0518L28.536 11.2848H30.3673H32.1985L32.1926 6.88591L32.1836 2.49004H30.3196H28.4555L28.4465 3.08432C28.4376 3.73832 28.4376 3.73832 28.2497 3.83687C28.199 3.86375 28.0707 3.89062 27.9634 3.89958C27.7814 3.91451 27.7576 3.90854 27.5757 3.80701C27.3579 3.68457 26.8569 3.43372 26.7227 3.37996C26.6034 3.3292 26.3498 3.22467 26.2783 3.19182C25.7623 2.96486 24.4947 2.51691 23.6686 2.26606C23.4956 2.2153 23.2272 2.13168 23.0721 2.08688C21.8492 1.71359 19.9136 1.30447 18.5685 1.13126C18.4283 1.11334 18.2613 1.09244 18.1957 1.08348C18.1301 1.07452 17.9094 1.05362 17.7036 1.03868C17.4978 1.02375 17.2234 0.996876 17.0922 0.981945C16.7432 0.943123 14.8523 0.922218 14.4526 0.952082Z" fill="white"/>
<path id="Vector_2" d="M56.2516 1.01479C56.0547 1.02972 55.8221 1.05362 55.7326 1.07153C55.6432 1.08646 55.5089 1.1014 55.4344 1.1014C55.2793 1.1014 54.7484 1.1671 54.3279 1.23578C54.1728 1.26266 53.9521 1.29849 53.8358 1.31343C52.1447 1.56726 49.8571 2.21828 48.4016 2.86034C48.2853 2.91111 48.1809 2.95292 48.172 2.95292C48.1541 2.95292 47.6202 3.20675 47.1251 3.44865C46.7165 3.64873 46.2662 3.89062 46.12 3.98619C46.0574 4.02501 46.0007 4.05786 45.9918 4.05786C45.9262 4.05786 44.6556 4.88507 44.1874 5.23447C43.4388 5.79291 43.057 6.12141 42.374 6.79034C41.5031 7.64145 40.8678 8.42685 40.2594 9.3974C40.1729 9.53477 40.1013 9.65124 40.1013 9.65721C40.1013 9.66319 40.0506 9.75278 39.988 9.85431C39.824 10.1291 39.4422 10.9145 39.2871 11.3027C39.0634 11.8581 38.8457 12.5629 38.7294 13.1213C38.5594 13.9127 38.5445 14.0829 38.5296 15.2058C38.5146 16.3884 38.5325 16.6333 38.7055 17.5112C38.8308 18.1563 39.1082 19.0402 39.3855 19.6883C39.5347 20.0317 39.9552 20.8709 40.0417 20.9903C40.0745 21.0381 40.1013 21.0829 40.1013 21.0918C40.1013 21.1008 40.164 21.2053 40.2385 21.3248C40.8649 22.3103 41.3331 22.8986 42.204 23.7915C42.8154 24.4186 43.3642 24.8964 44.1724 25.5056C44.6407 25.858 45.9232 26.6942 45.9948 26.6942C46.0007 26.6942 46.0574 26.727 46.12 26.7659C46.466 26.9928 47.6888 27.5961 48.2883 27.8409C48.4374 27.9007 48.5836 27.9634 48.6164 27.9783C48.7297 28.0321 49.3948 28.2829 49.7348 28.4024C51.3752 28.9817 53.3645 29.4267 55.3568 29.6566C55.5477 29.6775 56.5111 29.6954 58.0262 29.7014C60.3257 29.7134 60.6448 29.7074 61.2473 29.6208C61.3546 29.6059 61.5754 29.579 61.7394 29.5581C61.9034 29.5402 62.2315 29.4924 62.4701 29.4506C62.7087 29.4117 62.9801 29.3669 63.0726 29.349C63.5289 29.2714 64.3163 29.0922 65.0768 28.8891C66.0581 28.6293 67.5225 28.1157 68.2621 27.7723C68.3695 27.7215 68.4679 27.6797 68.4769 27.6797C68.4858 27.6797 68.7602 27.5483 69.0823 27.39C70.0785 26.9002 70.5676 26.6225 71.4027 26.07C71.8411 25.7804 72.4854 25.3085 72.8254 25.0308C72.8999 24.9681 73.055 24.8427 73.1683 24.7501C73.4308 24.5351 74.7461 23.2181 74.9638 22.9523C75.3396 22.4954 75.6438 22.0863 75.9391 21.6413C76.1091 21.3845 76.2493 21.1635 76.2493 21.1546C76.2493 21.1426 76.2731 21.0978 76.303 21.056C76.3656 20.9664 76.5416 20.6499 76.6698 20.393C77.326 19.103 77.7226 17.7502 77.8598 16.3346C77.8986 15.9375 77.8986 14.8295 77.8598 14.4055C77.7405 13.0975 77.314 11.6192 76.7265 10.4635C76.5535 10.1261 76.3656 9.78264 76.3059 9.69604C76.2731 9.65423 76.2493 9.61242 76.2493 9.60346C76.2493 9.54971 75.8108 8.89869 75.4619 8.43282C75.0235 7.84452 74.8206 7.61756 74.0512 6.85007C73.1236 5.92431 72.5152 5.42261 71.4713 4.72679C71.0299 4.43413 70.329 3.99813 70.2962 3.99813C70.2902 3.99813 70.2306 3.96528 70.165 3.92347C70.0158 3.82791 68.9093 3.26648 68.6141 3.13508C68.4918 3.08133 68.3158 3.00368 68.2263 2.96188C67.2958 2.53483 65.554 1.95548 64.3491 1.67178C63.3917 1.44482 62.151 1.22682 61.3069 1.13425C60.7194 1.06855 60.4152 1.04167 60.0274 1.01181C59.5532 0.975971 56.7676 0.978956 56.2516 1.01479ZM59.5144 5.62866C60.093 5.6854 60.3674 5.71825 60.5464 5.75409C61.459 5.94223 62.1778 6.13933 62.7862 6.37524C62.9801 6.4499 63.1799 6.52456 63.2277 6.54248C63.2754 6.5604 63.4066 6.62012 63.5199 6.67388C63.6303 6.73062 63.7317 6.77541 63.7377 6.77541C63.7675 6.77541 64.2149 6.9964 64.2894 7.04418C64.3312 7.07106 64.4386 7.13377 64.528 7.18454C65.0947 7.49512 65.721 7.92813 66.2728 8.39101C66.6128 8.6777 67.43 9.51686 67.7104 9.86626C68.4918 10.8428 69.1539 12.1747 69.4283 13.3155C69.6311 14.1666 69.6728 14.507 69.6728 15.376C69.6699 16.263 69.6072 16.7647 69.3895 17.6008C69.1658 18.4579 68.7155 19.4374 68.1876 20.2288C67.606 21.0978 66.6784 22.0714 65.7956 22.7433C65.5123 22.9583 64.8501 23.3943 64.6175 23.5197C64.528 23.5705 64.361 23.6601 64.2447 23.7228C63.9464 23.887 63.7705 23.9766 63.7466 23.9766C63.7347 23.9766 63.6303 24.0214 63.5199 24.0782C63.4066 24.1319 63.2754 24.1916 63.2277 24.2096C63.1799 24.2275 62.9831 24.3021 62.7862 24.3768C62.0078 24.6784 60.8357 24.9681 59.9648 25.0786C59.2729 25.1652 59.0492 25.1801 58.2349 25.1801C57.209 25.1801 56.7049 25.1383 55.7923 24.9741C54.8916 24.8128 53.7284 24.4664 53.0901 24.1737C53.0096 24.1349 52.9112 24.0961 52.8724 24.0841C52.7352 24.0393 51.9419 23.6242 51.5691 23.4003C50.7518 22.9105 50.2001 22.4745 49.4515 21.722C48.6194 20.8888 48.0885 20.1691 47.6232 19.2344C47.2623 18.5087 46.979 17.6665 46.8418 16.9289C46.8239 16.8214 46.7941 16.6721 46.7792 16.5944C46.7553 16.4571 46.7106 15.6956 46.7106 15.376C46.7106 14.2203 46.8985 13.2468 47.325 12.1807C47.6262 11.4311 48.0944 10.6248 48.6402 9.91105C49.1502 9.25107 50.1911 8.28052 50.9904 7.71909C51.4587 7.39358 52.604 6.75451 52.8724 6.6679C52.9112 6.65596 53.0096 6.61714 53.0901 6.57832C53.6986 6.2976 55.1928 5.84965 55.834 5.75708C55.9325 5.74513 56.1144 5.71825 56.2367 5.70034C56.7467 5.62568 56.9584 5.60477 57.3849 5.58088C57.9576 5.55102 58.9537 5.57192 59.5144 5.62866Z" fill="white"/>
<path id="Vector_3" d="M81.1719 4.92381V6.59615H83.1403C84.8821 6.59615 85.1356 6.60212 85.3116 6.64691C85.5651 6.70963 85.7172 6.81116 85.8186 6.98138L85.8991 7.11875L85.9081 15.809C85.9111 21.9429 85.9051 24.5439 85.8812 24.6544C85.8395 24.8665 85.6665 25.0456 85.4339 25.1203C85.2818 25.1651 85.0879 25.1711 83.2507 25.1711H81.2315V26.8882V28.6053H88.7922H96.3528V26.8882V25.1711H94.0921C91.6584 25.1711 91.6345 25.1711 91.4734 25.0188C91.3034 24.8605 91.3124 25.2457 91.3124 17.8038C91.3124 14.0381 91.3184 10.9562 91.3273 10.9562C91.372 10.9562 91.5271 11.0786 91.715 11.2578C91.8313 11.3683 91.9656 11.4907 92.0133 11.5266C92.064 11.5624 92.2042 11.6878 92.3294 11.8043C92.4517 11.9208 92.6992 12.1447 92.8782 12.3C93.0542 12.4553 93.2957 12.6703 93.415 12.7778C93.5344 12.8853 93.7759 13.1004 93.9519 13.2556C94.1279 13.4109 94.3635 13.62 94.4738 13.7185C94.5842 13.8171 94.8258 14.0321 95.0107 14.1963C95.1956 14.3606 95.4432 14.5816 95.5625 14.6891C95.6818 14.7966 95.9233 15.0116 96.0993 15.1669C96.2753 15.3222 96.5109 15.5312 96.6212 15.6298C96.7286 15.7283 96.9732 15.9433 97.1581 16.1076C97.346 16.2718 97.5935 16.4928 97.7099 16.6003C97.8292 16.7078 98.0827 16.9348 98.2765 17.108C98.4704 17.2812 98.712 17.4962 98.8134 17.5858C98.9118 17.6754 99.1415 17.8785 99.3204 18.0338C99.4964 18.1891 99.7409 18.4041 99.8573 18.5116C99.9766 18.6191 100.224 18.8401 100.409 19.0043C100.594 19.1686 100.841 19.3896 100.961 19.4971C101.08 19.6046 101.322 19.8196 101.498 19.9749C101.674 20.1302 101.915 20.3452 102.034 20.4527C102.151 20.5602 102.386 20.7662 102.556 20.9156C102.726 21.0619 102.968 21.2769 103.093 21.3934C103.219 21.5069 103.466 21.7308 103.645 21.8861C103.821 22.0414 104.066 22.2564 104.182 22.3639C104.301 22.4714 104.543 22.6865 104.719 22.8417C104.895 22.997 105.136 23.212 105.256 23.3196C105.375 23.4271 105.622 23.6481 105.807 23.8123C105.992 23.9765 106.234 24.1916 106.344 24.2901C106.455 24.3887 106.69 24.5977 106.866 24.753C107.042 24.9083 107.284 25.1233 107.403 25.2308C107.519 25.3383 107.761 25.5533 107.94 25.7086C108.116 25.8639 108.357 26.0789 108.477 26.1864C108.593 26.2939 108.841 26.5149 109.028 26.6792C109.216 26.8434 109.464 27.0644 109.58 27.1719C109.7 27.2794 109.941 27.4944 110.117 27.6497C110.296 27.805 110.529 28.0141 110.636 28.1126C110.743 28.2112 110.916 28.3635 111.018 28.4501L111.2 28.6053H113.991H116.783V18.2189C116.783 10.8845 116.792 7.79963 116.816 7.71602C116.92 7.33078 117.171 7.04409 117.517 6.92166L117.722 6.84998L119.7 6.84102L121.674 6.83207V5.04326V3.25146H114.084H106.493V5.04326V6.83505H108.456C110.254 6.83505 110.433 6.84102 110.624 6.89179C111.08 7.00826 111.441 7.25314 111.608 7.55476L111.698 7.71602L111.707 13.2915C111.71 16.8034 111.704 18.8699 111.686 18.8699C111.668 18.8699 111.558 18.7803 111.435 18.6669C111.313 18.5564 111.048 18.3175 110.848 18.1383C110.645 17.9561 110.371 17.7083 110.236 17.5858C110.105 17.4634 109.828 17.2125 109.625 17.0333C109.422 16.8512 109.154 16.6093 109.028 16.4958C108.903 16.3793 108.629 16.1315 108.417 15.9433C108.205 15.7552 107.943 15.5193 107.835 15.4207C107.725 15.3222 107.472 15.0922 107.269 14.9131C107.066 14.7309 106.801 14.489 106.675 14.3725C106.55 14.2561 106.255 13.9873 106.019 13.7753C105.781 13.5632 105.491 13.3034 105.375 13.1959C105.259 13.0884 104.996 12.8525 104.793 12.6733C104.59 12.4911 104.322 12.2493 104.197 12.1358C104.072 12.0193 103.809 11.7864 103.615 11.6132C103.421 11.44 103.159 11.204 103.034 11.0906C102.908 10.9741 102.64 10.7322 102.437 10.553C102.234 10.3709 101.969 10.129 101.844 10.0125C101.718 9.89603 101.563 9.75568 101.498 9.69893C101.432 9.64518 101.283 9.5108 101.167 9.40329C101.05 9.29578 100.779 9.04792 100.558 8.85082C100.34 8.65372 100.063 8.40586 99.9467 8.29835C99.8304 8.19084 99.568 7.95492 99.3651 7.77574C99.1623 7.59358 98.8879 7.34571 98.7537 7.22327C98.6195 7.10083 98.366 6.87089 98.1871 6.7156C98.0081 6.56031 97.7546 6.33036 97.6234 6.20792C97.4891 6.08548 97.3281 5.93915 97.2625 5.88241C97.1969 5.82567 97.0477 5.69129 96.9344 5.58378C96.8181 5.47627 96.5855 5.26425 96.4154 5.11792C96.2454 4.9686 95.983 4.73268 95.8339 4.59232C95.6847 4.44898 95.4939 4.27577 95.4103 4.2041C95.2493 4.06374 94.8914 3.74421 94.5603 3.43661L94.3575 3.25146H87.7632H81.1719V4.92381Z" fill="white"/>
<path id="Vector_4" d="M124.686 5.04332V6.83512H126.976H129.267L129.654 7.24424C129.866 7.4712 130.087 7.71011 130.144 7.77581C130.2 7.84151 130.349 8.00277 130.472 8.13715C130.594 8.26855 130.862 8.5642 131.068 8.79116C131.274 9.0211 131.548 9.32272 131.68 9.46308C131.811 9.60344 132.085 9.90804 132.291 10.135C132.497 10.365 132.771 10.6666 132.905 10.8069C133.037 10.9473 133.192 11.1145 133.248 11.1802C133.305 11.2459 133.445 11.4012 133.558 11.5236C133.675 11.6461 133.815 11.8014 133.869 11.8671C133.925 11.9328 134.086 12.109 134.227 12.2583C134.367 12.4076 134.638 12.7003 134.826 12.9123C135.384 13.5334 135.777 13.9665 136.064 14.2711C136.213 14.4293 136.487 14.731 136.675 14.943C136.863 15.155 137.126 15.4417 137.26 15.5821C137.391 15.7254 137.552 15.8986 137.618 15.9733C137.68 16.0449 137.829 16.2092 137.943 16.3346C138.059 16.4571 138.319 16.7467 138.524 16.9737C138.73 17.2036 139.005 17.5052 139.136 17.6456C139.267 17.786 139.55 18.0965 139.762 18.3325C139.977 18.5684 140.239 18.861 140.353 18.9835L140.552 19.2045L140.546 21.9847L140.538 24.768L140.466 24.9113C140.415 25.0129 140.356 25.0756 140.257 25.1353L140.12 25.2159L137.993 25.2249L135.87 25.2339L135.876 26.8524L135.885 28.471L144.707 28.48L153.526 28.486L153.52 26.8674L153.511 25.2458L151.191 25.2398C148.972 25.2368 148.868 25.2339 148.763 25.1801C148.704 25.1473 148.611 25.0726 148.563 25.0099L148.471 24.8964L148.462 22.1818L148.456 19.4673L148.853 19.0581C149.073 18.8312 149.339 18.5505 149.443 18.434C149.64 18.213 150.102 17.7203 150.753 17.0364C150.958 16.8184 151.373 16.3734 151.677 16.0479C151.981 15.7224 152.39 15.2834 152.587 15.0774C152.784 14.8683 153.186 14.4383 153.482 14.1217C153.777 13.8052 154.185 13.3662 154.391 13.1512C154.597 12.9362 155 12.5061 155.286 12.1956C155.572 11.888 155.975 11.4579 156.181 11.2399C156.387 11.0249 156.774 10.6098 157.046 10.3172C157.317 10.0245 157.714 9.60045 157.929 9.37648C158.143 9.1525 158.4 8.88075 158.495 8.77025C158.594 8.66275 159.038 8.18792 159.485 7.71907L160.303 6.86498H162.34C163.461 6.86498 164.398 6.85602 164.424 6.84706C164.466 6.82914 164.472 6.64399 164.472 5.04034V3.25153H157.18H149.888V5.04332V6.83213L151.09 6.84109L152.289 6.85005L152.444 6.93665C152.614 7.02923 152.751 7.19945 152.751 7.31591C152.748 7.47419 152.626 7.65635 152.265 8.02666C152.065 8.2357 151.713 8.61198 151.483 8.86582C151.254 9.11965 150.964 9.43322 150.842 9.5676C150.386 10.0633 149.661 10.8667 149.369 11.1981C149.306 11.2698 149.145 11.443 149.011 11.5834C148.88 11.7237 148.602 12.0253 148.396 12.2553C148.191 12.4823 147.931 12.7719 147.815 12.8974C147.702 13.0198 147.46 13.2886 147.278 13.4916C147.099 13.6977 146.849 13.9724 146.723 14.1038C146.598 14.2382 146.452 14.3965 146.395 14.4592L146.294 14.5757L145.891 14.1576C145.67 13.9276 145.289 13.5215 145.041 13.2527C144.797 12.9869 144.46 12.6226 144.296 12.4494C143.613 11.7207 143.335 11.4161 143.21 11.2728C143.141 11.1892 142.971 11.007 142.837 10.8667C142.703 10.7263 142.548 10.5591 142.494 10.4934C142.437 10.4277 142.291 10.2664 142.166 10.132C142.041 9.99763 141.811 9.7438 141.656 9.5676C141.501 9.39141 141.292 9.15549 141.194 9.045C140.785 8.58809 140.43 8.16702 140.218 7.89526C139.995 7.6026 139.908 7.21139 140.028 7.02923C140.132 6.87095 140.177 6.86498 141.492 6.86498H142.7V5.05825V3.25153H133.693H124.686V5.04332Z" fill="white"/>
</g>
</svg>
