<svg width="177" height="41" viewBox="0 0 177 41" fill="none" xmlns="http://www.w3.org/2000/svg">
<g id="Group">
<path id="Vector" d="M18.8129 0.570351C14.107 1.11113 9.99505 3.08383 6.70551 6.38182C5.06073 8.027 3.91853 9.6341 2.89816 11.7211C1.90825 13.7394 1.36761 15.476 1.01733 17.7382C0.887881 18.6065 0.857422 19.1396 0.857422 20.5944C0.857422 22.5747 0.979257 23.6943 1.40568 25.4309C2.07577 28.1577 3.47688 30.9987 5.26633 33.2379C5.9745 34.1291 7.54312 35.6829 8.41881 36.3607C11.4038 38.6762 14.4953 39.9862 18.2798 40.5575C19.2012 40.7022 22.6811 40.7022 23.6101 40.5651C29.5877 39.6663 34.4839 36.5816 37.7735 31.6384C38.4359 30.6407 39.4258 28.6832 39.8294 27.5712C42.0529 21.5008 41.2458 14.7144 37.6592 9.35991C36.182 7.15871 34.324 5.30026 32.1157 3.83787C29.4354 2.05559 26.4961 0.974033 23.2903 0.600819C22.2547 0.478954 19.7419 0.463718 18.8129 0.570351ZM17.8915 15.3008C19.5134 20.6629 20.8536 25.1034 20.8764 25.1643C20.9145 25.2557 20.9374 25.2481 20.9907 25.1263C21.0287 25.0425 22.3613 20.6172 23.9604 15.3008C25.5595 9.97685 26.8921 5.60492 26.9225 5.56684C26.953 5.52876 33.5321 27.0609 34.5829 30.6635C34.621 30.7854 34.5524 30.8006 33.9356 30.8006C33.5625 30.8006 33.2351 30.7702 33.2122 30.7321C33.1818 30.694 33.0676 30.2751 32.9381 29.7952C32.2452 27.1218 31.2781 24.6769 30.3948 23.344C29.3668 21.7978 27.7144 20.9371 26.2677 21.1809C25.2397 21.356 24.3335 21.9958 23.3893 23.2145C22.7877 23.9838 22.3385 24.7683 21.5542 26.4058C21.2191 27.1066 20.9298 27.6778 20.9069 27.6778C20.8841 27.6778 20.7698 27.4493 20.648 27.1599C20.2825 26.2992 19.3154 24.4788 18.8662 23.7934C18.3103 22.9479 17.2062 21.8511 16.597 21.5312C14.8456 20.6096 12.683 21.4017 11.3733 23.4506C10.4519 24.8749 9.49248 27.3503 8.83001 30.0009L8.62441 30.8082L7.93147 30.7854C7.36798 30.7702 7.23853 30.7397 7.25376 30.6483C7.27661 30.5493 14.7542 5.87912 14.8608 5.59731C14.8761 5.53637 14.9065 5.50591 14.9218 5.52114C14.9446 5.53637 16.2772 9.93877 17.8915 15.3008Z" fill="white"/>
<path id="Vector_2" d="M153.326 17.7762V28.668H154.963H156.6V17.7762V6.8845H154.963H153.326V17.7762Z" fill="white"/>
<path id="Vector_3" d="M94.7696 15.3009C94.7696 24.2047 94.7544 23.9305 95.2645 25.1111C95.7899 26.3449 96.4905 27.2589 97.45 27.9825C98.7064 28.9346 99.8562 29.3459 101.417 29.4068L102.384 29.4525V27.7692V26.0936L101.57 26.0631C100.808 26.0403 100.701 26.0174 100.146 25.7508C99.0719 25.2405 98.3104 24.2428 98.1277 23.1079C98.0744 22.8108 98.0439 21.12 98.0439 18.8654V15.1105L100.199 15.0952L102.346 15.0724L102.369 13.412L102.384 11.7592H100.214H98.0439V9.51226V7.26537H96.4067H94.7696V15.3009Z" fill="white"/>
<path id="Vector_4" d="M111.728 11.3173C109.687 11.462 107.867 12.3074 106.336 13.8155C105.088 15.0494 104.372 16.2528 103.923 17.9132C103.74 18.5911 103.725 18.7663 103.725 20.1373C103.725 21.7596 103.786 22.0948 104.28 23.3896C105.605 26.817 109.177 29.1325 112.855 28.9421C115.246 28.8278 117.286 27.8986 118.908 26.1849C122.685 22.209 121.969 15.8644 117.385 12.7492C115.794 11.6676 113.814 11.1649 111.728 11.3173ZM113.677 14.699C114.393 14.859 115.489 15.3921 116.03 15.8491C116.928 16.6032 117.621 17.7076 117.888 18.8044C118.078 19.5889 118.063 20.7771 117.85 21.5464C116.89 25.0043 113.106 26.6495 109.893 24.9967C109.108 24.593 108.103 23.6181 107.677 22.8564C106.26 20.3049 107.014 17.1135 109.398 15.5292C110.669 14.6762 112.223 14.3791 113.677 14.699Z" fill="white"/>
<path id="Vector_5" d="M129.835 11.3097C128.997 11.3859 128.357 11.5611 127.604 11.9191C126.012 12.6579 124.71 14.0365 124.063 15.6512C123.583 16.847 123.598 16.5881 123.575 22.9327L123.545 28.7441H125.228H126.903V23.2373C126.903 17.1821 126.895 17.2507 127.367 16.4281C127.703 15.8416 128.289 15.3008 128.913 14.9962C129.599 14.6611 130.048 14.5773 131.175 14.5773H132.081V12.9016V11.226L131.266 11.2336C130.809 11.2412 130.17 11.2717 129.835 11.3097Z" fill="white"/>
<path id="Vector_6" d="M141.447 11.3098C139.407 11.4773 137.495 12.3685 136.003 13.8537C132.987 16.847 132.515 21.4779 134.876 25.0349C135.325 25.7127 136.285 26.7257 136.947 27.2132C140.48 29.8333 145.361 29.4601 148.491 26.3449C149.763 25.0806 150.6 23.4582 150.928 21.6379C151.118 20.5715 151.057 18.9416 150.783 17.9057C149.976 14.7982 147.493 12.3304 144.364 11.5382C144.021 11.4468 143.473 11.3555 143.145 11.3326C142.818 11.3098 142.468 11.2869 142.361 11.2717C142.255 11.2641 141.843 11.2793 141.447 11.3098ZM143.922 14.8362C145.856 15.4913 147.242 17.0451 147.646 19.0101C148.232 21.8587 146.435 24.7302 143.602 25.4766C142.848 25.6747 141.699 25.6899 140.952 25.5147C140.252 25.3471 139.308 24.8825 138.744 24.4255C136.764 22.8184 136.125 20.0155 137.221 17.7382C137.929 16.2605 139.308 15.1333 140.891 14.7296C141.767 14.5087 143.085 14.5544 143.922 14.8362Z" fill="white"/>
<path id="Vector_7" d="M166.958 11.3097C164.475 11.4849 162.145 12.7721 160.592 14.8438C158.361 17.8295 158.277 21.9348 160.386 25.1034C160.828 25.7736 161.871 26.8399 162.549 27.3198C165.671 29.5286 169.92 29.4829 172.958 27.2131L173.354 26.9085V27.792V28.6679H174.953H176.552V24.1894C176.552 21.4017 176.522 19.4595 176.468 19.0329C176.072 15.7883 173.818 12.9473 170.757 11.8276C169.508 11.3706 168.366 11.2183 166.958 11.3097ZM169.28 14.8057C170.232 15.1028 170.818 15.4684 171.572 16.2148C172.364 16.9993 172.798 17.7457 173.057 18.7435C173.224 19.3985 173.262 20.6324 173.133 21.2113C172.585 23.6105 170.689 25.3471 168.305 25.6137C165.534 25.9259 162.952 24.1056 162.305 21.3865C162.084 20.4648 162.13 19.2995 162.412 18.4236C163.028 16.5423 164.582 15.1408 166.539 14.6838C167.209 14.5315 168.595 14.5924 169.28 14.8057Z" fill="white"/>
<path id="Vector_8" d="M54.3359 11.759C51.3966 12.1094 48.9675 14.3487 48.366 17.2582C48.2594 17.7609 48.2441 18.6368 48.2441 23.5267V29.201H49.8813H51.5185V23.8847C51.5185 20.5943 51.5489 18.3855 51.6022 18.0808C51.8992 16.1691 53.7953 14.7828 55.6685 15.0951C57.1533 15.3388 58.4098 16.5499 58.6763 17.997C58.722 18.2408 58.7524 20.5334 58.7524 23.8085V29.201L60.4124 29.1858L62.0648 29.163L62.1029 23.4505L62.141 17.7381L62.4227 17.144C63.5116 14.8742 66.428 14.3411 68.187 16.1005C68.4231 16.3366 68.7048 16.7022 68.819 16.9155C69.2607 17.7228 69.2607 17.6924 69.2607 23.6942V29.201H70.9359H72.6188L72.5959 23.3896C72.5655 17.7381 72.5655 17.5705 72.4056 17.0069C71.8192 14.9275 70.54 13.3509 68.6744 12.4141C66.0854 11.1192 62.7273 11.7057 60.7018 13.8079L60.4048 14.1126L59.9022 13.6403C58.7296 12.5359 57.4427 11.9495 55.8208 11.759C55.0669 11.6753 55.0517 11.6753 54.3359 11.759Z" fill="white"/>
<path id="Vector_9" d="M82.738 11.7668C80.7049 11.98 78.588 13.0387 77.2174 14.5164C73.8821 18.119 74.0497 23.6106 77.5981 26.9847C80.6135 29.8486 85.2813 30.2142 88.6699 27.853C90.4898 26.5887 91.6853 24.8597 92.264 22.6585C92.462 21.9045 92.5381 20.0993 92.4087 19.2158C91.83 15.2476 88.5709 12.1705 84.497 11.7592C83.6289 11.6754 83.6594 11.6754 82.738 11.7668ZM85.2966 15.2476C86.2027 15.537 86.8423 15.933 87.581 16.6642C88.1521 17.2431 88.3348 17.4792 88.6242 18.0581C89.0963 19.0178 89.241 19.688 89.1953 20.8077C89.1648 21.516 89.1191 21.8283 88.9516 22.3081C88.1673 24.5931 86.0961 26.0784 83.6899 26.0784C82.1288 26.0784 80.9333 25.5757 79.7988 24.4484C78.7175 23.3592 78.2682 22.3615 78.1921 20.8534C78.1387 19.7718 78.2834 19.0635 78.7632 18.0809C79.0601 17.464 79.22 17.2507 79.7988 16.6719C80.5831 15.8874 81.375 15.4304 82.3649 15.179C83.1035 14.9886 84.6036 15.0267 85.2966 15.2476Z" fill="white"/>
</g>
</svg>
