<svg width="188" height="36" viewBox="0 0 188 36" fill="none" xmlns="http://www.w3.org/2000/svg">
<g id="playstation-movies-png-logo-6 1" clip-path="url(#clip0_161_7988)">
<g id="Group">
<path id="Vector" d="M0.628614 7.94924C0.632374 12.3247 0.636134 18.1836 0.636134 20.9669L0.639894 26.0354H2.67029H4.70069V14.2689V2.50616L7.04317 2.52114C9.24277 2.53613 9.40822 2.53988 9.8143 2.61854C10.8295 2.80585 11.5364 3.10554 11.9725 3.53634C12.5027 4.0533 12.8373 4.94112 13.0178 6.3122C13.0855 6.81792 13.0855 9.42895 13.0178 10.0958C12.9501 10.7588 12.8449 11.347 12.7283 11.7141C12.5027 12.4258 11.8861 13.0552 11.1566 13.3211C10.6001 13.5197 10.4685 13.5347 8.77278 13.5497L7.18229 13.5684V14.7072V15.846L9.05478 15.8535C11.3108 15.861 11.6116 15.8573 12.232 15.7861C13.7698 15.6175 14.7888 15.2054 15.4957 14.4749C16.8944 13.0215 17.5223 10.9087 17.5223 7.66079C17.5223 6.74674 17.4809 6.18858 17.3681 5.54425C17.2102 4.63394 16.9733 3.88098 16.6199 3.16547C16.1725 2.24393 15.6686 1.62957 14.9467 1.11636C14.1684 0.565681 12.6193 0.18358 10.5588 0.0374832C10.2241 0.0150051 8.17118 2.09808e-05 5.31357 2.09808e-05H0.621094L0.628614 7.94924Z" fill="white"/>
<path id="Vector_2" d="M20.7188 13.0177V26.0354H22.768H24.8172V13.0177V2.09808e-05H22.768H20.7188V13.0177Z" fill="white"/>
<path id="Vector_3" d="M130.059 1.81681V3.63367H132.089H134.119V1.81681V-4.79221e-05H132.089H130.059V1.81681Z" fill="white"/>
<path id="Vector_4" d="M73.9035 0.0636921C73.2755 0.0899143 72.3581 0.198551 71.8693 0.29595C69.5043 0.78669 68.3537 1.91801 67.7521 4.36421C67.3235 6.11364 67.3009 8.70219 67.707 10.3767C68.1206 12.1037 69.305 13.4185 70.9707 14.0104C71.4632 14.1827 71.8768 14.2651 72.4747 14.3101C72.7642 14.3326 73.2379 14.3663 73.5275 14.3888C74.2832 14.4412 75.8624 14.6023 76.0843 14.6435C76.9378 14.8046 77.6635 15.4414 77.9041 16.2356C78.1485 17.026 78.3027 18.708 78.2124 19.5172C78.1184 20.3376 77.8703 21.3865 77.6409 21.9372C77.3326 22.6751 76.4152 23.2483 75.1819 23.4731C74.851 23.5367 74.6141 23.5442 73.2079 23.5405C72.328 23.5367 70.9256 23.5068 70.0908 23.4731C69.2523 23.4393 68.5455 23.4131 68.5192 23.4131C68.4815 23.4131 68.4703 23.6604 68.4703 24.6493V25.8855H68.6883C68.8049 25.8855 70.2487 25.9193 71.8919 25.9642C75.0691 26.0504 76.0016 26.0391 77.1183 25.9043C78.8591 25.6907 80.194 25.0689 80.882 24.1548C81.5776 23.2258 82.0815 21.5401 82.2732 19.4797C82.3259 18.8878 82.3259 17.1646 82.2732 16.5952C82.1078 14.9245 81.7506 13.7519 81.1302 12.8566C80.7655 12.3284 80.0248 11.7103 79.3555 11.3769C78.6524 11.0285 78.0244 10.8862 76.8551 10.8075C75.5804 10.7213 73.7869 10.5378 73.4899 10.4591C72.7717 10.2718 72.1701 9.75859 71.9107 9.11426C71.7076 8.61603 71.5798 7.60084 71.576 6.49949C71.5723 5.84767 71.5835 5.70157 71.6588 5.36442C71.7678 4.87743 71.9746 4.27431 72.125 4.01583C72.2641 3.76858 72.7491 3.28159 73.0612 3.06806C73.6516 2.67098 74.1817 2.54736 75.4451 2.52113C76.2309 2.50615 78.5621 2.56609 80.2316 2.64475L80.7279 2.67098V1.42727V0.187313H80.4384C80.2767 0.187313 79.0547 0.153599 77.7199 0.112391C75.4902 0.0449619 74.5991 0.0337238 73.9035 0.0636921Z" fill="white"/>
<path id="Vector_5" d="M86.6309 12.0511C86.6309 21.9446 86.6346 22.1132 86.785 23.5067C86.8377 24.0162 86.879 24.1773 87.0106 24.4283C87.4581 25.2636 88.3981 25.8368 89.5825 25.9979C89.8005 26.0278 90.4961 26.0278 92.1017 25.9941C93.3237 25.9716 94.3426 25.9492 94.3689 25.9379C94.4028 25.9267 94.4141 25.6495 94.4141 24.7055V23.4842L93.9553 23.5142C93.6997 23.5292 93.1394 23.5442 92.7033 23.5442C92.0415 23.5442 91.8798 23.5329 91.7106 23.4767C91.1541 23.2894 90.9323 22.9523 90.8421 22.1581C90.7405 21.274 90.7293 20.4574 90.7293 14.6172V8.50359H93.0229H95.3165V7.28611V6.06863H93.0229H90.7293V4.28923V2.50984H88.6801H86.6309V12.0511Z" fill="white"/>
<path id="Vector_6" d="M117.877 12.2198C117.877 22.4504 117.881 22.6452 118.046 23.784C118.121 24.2972 118.287 24.6119 118.7 25.024C119.238 25.5597 119.851 25.8519 120.716 25.9792C121.084 26.0317 121.351 26.0354 123.329 25.9979C124.54 25.9717 125.551 25.9455 125.577 25.938C125.611 25.9268 125.623 25.6496 125.623 24.7055V23.4881L125.164 23.518C124.908 23.533 124.337 23.5443 123.893 23.5443C123.133 23.5443 123.07 23.5368 122.859 23.4543C122.566 23.3382 122.314 23.0872 122.205 22.7988C122.111 22.544 122.028 21.9072 121.975 20.9819C121.953 20.5549 121.938 18.0225 121.938 14.3963V8.50367H124.231H126.525V7.28619V6.06871H124.231H121.938V4.28931V2.50992H119.907H117.877V12.2198Z" fill="white"/>
<path id="Vector_7" d="M146.133 5.91887C144.441 6.01253 143.005 6.33469 141.884 6.87413C140.226 7.67205 139.215 9.21169 138.711 11.7141C138.256 13.9805 138.215 17.3819 138.613 19.8356C138.94 21.8473 139.534 23.2371 140.482 24.2223C141.204 24.9678 142.11 25.4435 143.464 25.7919C144.016 25.9343 144.971 26.0879 145.644 26.1478C146.227 26.1965 147.806 26.1965 148.389 26.1478C150.254 25.9867 151.773 25.5447 152.807 24.8591C153.232 24.5744 153.815 23.99 154.119 23.5443C154.371 23.1659 154.755 22.383 154.928 21.8922C155.962 18.8991 155.966 13.2275 154.932 10.2269C154.744 9.67996 154.285 8.76966 154.014 8.41003C153.206 7.34239 152.153 6.70181 150.506 6.28974C149.284 5.98256 147.588 5.84021 146.133 5.91887ZM147.957 8.66102C149.352 8.85207 150.265 9.61627 150.717 10.9574C151.134 12.1973 151.303 13.677 151.303 16.0521C151.303 18.0974 151.183 19.3936 150.89 20.5474C150.461 22.2406 149.747 23.0123 148.265 23.3869C147.979 23.4581 147.836 23.4693 147.148 23.4693C146.46 23.4693 146.317 23.4581 146.032 23.3869C144.84 23.0872 144.17 22.5441 143.723 21.5101C143.366 20.6897 143.136 19.4835 143.031 17.9289C142.982 17.1722 142.982 14.8758 143.031 14.1603C143.174 12.0887 143.497 10.7888 144.088 9.92345C144.776 8.91575 146.269 8.42501 147.957 8.66102Z" fill="white"/>
<path id="Vector_8" d="M34.1413 6.14736C32.6222 6.18856 31.3213 6.22977 31.2574 6.24101L31.1333 6.25974V7.57088V8.88576L31.5958 8.86328C32.7388 8.80709 34.9083 8.7509 36.0401 8.7509C37.1079 8.74715 37.326 8.75839 37.593 8.81458C38.3487 8.98315 38.9541 9.2791 39.2962 9.64996C39.5745 9.95339 39.879 10.5041 40.0407 11.006C40.2588 11.6654 40.2513 11.4481 40.2513 17.6254V23.3195L38.9353 23.4056C36.1604 23.5854 34.6827 23.3832 33.8668 22.7089C33.111 22.087 32.8253 21.2479 32.8253 19.6595C32.8253 18.959 32.8892 18.4833 33.0471 18.03C33.269 17.3894 33.8367 16.6664 34.3105 16.4229C34.9196 16.1045 35.367 16.0296 36.7282 16.0071L37.7885 15.9884V14.8271V13.662L36.0514 13.6845C34.8294 13.6995 34.1751 13.722 33.8593 13.7632C31.78 14.0254 30.558 14.6248 29.6669 15.8123C29.2683 16.348 28.8998 17.1834 28.7457 17.9064C28.5088 19.0227 28.4787 20.4612 28.6705 21.5775C28.9675 23.297 29.7759 24.5557 30.9641 25.1438C31.9417 25.6308 33.6826 25.908 36.0025 25.9492C37.0553 25.968 41.4658 25.8968 43.6278 25.8256L44.3685 25.7994V19.0152C44.3685 14.6323 44.3534 12.0175 44.3271 11.6316C44.2106 9.87098 43.7218 8.61229 42.7893 7.67577C41.9884 6.8741 40.9356 6.41708 39.3301 6.17733C38.6006 6.06869 37.42 6.0612 34.1413 6.14736Z" fill="white"/>
<path id="Vector_9" d="M46.5117 6.08366C46.5117 6.0949 48.1887 10.4778 50.2341 15.8273L53.9603 25.5559L51.8472 30.7105C50.6853 33.5501 49.7265 35.8989 49.7152 35.9326C49.7002 35.9963 49.798 36 51.3847 36L53.0729 35.9963L59.2205 21.0681C62.6008 12.8604 65.3756 6.12487 65.3794 6.10614C65.3907 6.07992 64.7176 6.07242 63.5032 6.07617L61.6119 6.08741L58.9385 13.3436C57.4684 17.3332 56.2576 20.6073 56.2501 20.6185C56.2388 20.626 55.1334 17.4194 53.7911 13.4934C52.4488 9.56379 51.3245 6.28595 51.2944 6.20728L51.2418 6.06868H48.8768C47.5758 6.06868 46.5117 6.07617 46.5117 6.08366Z" fill="white"/>
<path id="Vector_10" d="M102.892 6.14736C101.362 6.18856 100.053 6.22977 99.9895 6.24101L99.8654 6.25974V7.57088V8.88201L100.403 8.85953C101.561 8.81083 104.543 8.72842 105.148 8.72842C106.648 8.72842 107.622 9.08805 108.205 9.85974C108.574 10.3467 108.829 10.9499 108.953 11.6316C109.013 11.9351 109.021 12.5232 109.029 17.6329L109.044 23.297L108.957 23.3157C108.908 23.327 108.261 23.3719 107.517 23.4169C104.746 23.5817 103.325 23.3569 102.524 22.6227C101.817 21.9821 101.584 21.2366 101.584 19.667C101.584 18.8429 101.651 18.3484 101.828 17.9251C102.106 17.262 102.637 16.6364 103.133 16.3892C103.719 16.097 104.389 15.9958 105.716 15.9958H106.558L106.551 14.842L106.539 13.692L105.317 13.6808C103.4 13.662 102.403 13.737 101.418 13.973C100.298 14.2427 99.5232 14.6435 98.869 15.2991C97.8049 16.3592 97.3086 17.8239 97.3086 19.903C97.3086 21.3678 97.5079 22.3829 97.9704 23.312C98.384 24.1399 98.8765 24.6756 99.5872 25.0801C100.49 25.5933 102.358 25.908 104.753 25.9492C105.791 25.968 110.232 25.893 112.36 25.8256L113.104 25.7994L113.089 18.5282C113.078 11.9351 113.074 11.2196 113.014 10.8749C112.785 9.48513 112.371 8.55235 111.623 7.76942C110.796 6.90032 109.758 6.43206 108.089 6.17733C107.37 6.06869 106.178 6.0612 102.892 6.14736Z" fill="white"/>
<path id="Vector_11" d="M130.059 16.052V26.0354H132.089H134.119V16.052V6.0687H132.089H130.059V16.052Z" fill="white"/>
<path id="Vector_12" d="M167.039 6.10615C166.358 6.12113 164.587 6.15485 163.11 6.17732C161.632 6.20354 160.35 6.22977 160.263 6.241L160.102 6.25974V16.1307V25.9979H162.132H164.162V17.4381C164.162 12.7292 164.166 8.87826 164.174 8.87826C164.328 8.85578 167.701 8.72841 168.103 8.72841C169.005 8.72841 169.581 8.8408 170.197 9.13674C170.998 9.52633 171.506 10.2306 171.788 11.3507L171.885 11.744L171.897 18.8728L171.908 25.9979H173.961H176.01L175.995 18.7043C175.98 11.066 175.984 11.2308 175.815 10.3954C175.495 8.83331 174.705 7.65703 173.506 6.964C172.754 6.52946 171.637 6.22227 170.366 6.10989C169.904 6.06494 169.017 6.06494 167.039 6.10615Z" fill="white"/>
<path id="Vector_13" d="M182.996 18.2847C182.38 18.3484 181.695 18.5956 181.169 18.944C180.669 19.2737 180.116 19.9068 179.823 20.4912C179.334 21.4577 179.3 22.7051 179.725 23.7353C180.116 24.6868 180.936 25.4997 181.891 25.8855C182.414 26.0991 182.771 26.1665 183.395 26.1665C184.019 26.1665 184.376 26.0991 184.895 25.8893C186.959 25.0502 187.926 22.6939 187.046 20.6485C186.591 19.5921 185.613 18.738 184.485 18.4121C184.233 18.3409 183.463 18.2323 183.324 18.2473C183.301 18.251 183.154 18.266 182.996 18.2847ZM183.82 18.9553C184.222 19.0077 184.685 19.1613 185.057 19.3711C185.407 19.5696 185.956 20.0903 186.189 20.4537C186.771 21.349 186.858 22.6077 186.407 23.578C185.952 24.5632 185.091 25.2412 184.019 25.4547C183.598 25.5409 182.914 25.5147 182.511 25.3986C181.44 25.0914 180.594 24.2785 180.252 23.2258C180.097 22.7576 180.06 22.0683 180.158 21.5775C180.274 21.0081 180.56 20.4387 180.947 20.0192C181.699 19.1988 182.722 18.8204 183.82 18.9553Z" fill="white"/>
<path id="Vector_14" d="M181.71 19.9554C181.695 19.9667 181.684 20.9631 181.684 22.1656V24.3496H182.078H182.473V23.4468V22.5477L183.293 22.559C183.936 22.5665 184.128 22.5815 184.195 22.6264C184.353 22.7313 184.395 22.8961 184.428 23.518C184.447 23.8439 184.481 24.1623 184.504 24.226L184.549 24.3496H184.977H185.406V24.2185C185.406 24.1511 185.383 24.0761 185.353 24.0612C185.244 23.9975 185.21 23.8364 185.18 23.2595C185.143 22.5927 185.086 22.3979 184.883 22.2555L184.763 22.1694L184.921 22.0195C185.162 21.7873 185.233 21.5887 185.237 21.1654C185.237 20.8508 185.226 20.7833 185.132 20.596C184.962 20.2514 184.646 20.0453 184.165 19.9704C183.898 19.9255 181.751 19.9142 181.71 19.9554ZM184.199 20.7084C184.372 20.8021 184.466 20.9856 184.466 21.2329C184.466 21.5213 184.38 21.6824 184.169 21.776C184.019 21.8435 183.902 21.8547 183.236 21.8697L182.473 21.8847V21.2628V20.641H183.274C183.977 20.641 184.086 20.6485 184.199 20.7084Z" fill="white"/>
</g>
</g>
<defs>
<clipPath id="clip0_161_7988">
<rect width="188" height="36" fill="white"/>
</clipPath>
</defs>
</svg>
